<svg width="89" height="18" viewBox="0 0 89 18" fill="none" xmlns="http://www.w3.org/2000/svg">
<path d="M29.2751 10.9775C29.2751 14.488 26.9818 17.9984 22.3531 17.9984C17.7244 17.9984 15.4311 14.488 15.4311 10.9775C15.4311 7.46699 17.7463 3.91128 22.3531 3.91128C26.9599 3.91128 29.2751 7.4436 29.2751 10.9775ZM18.9913 10.9541C18.9913 12.8879 20.1036 14.7983 22.3515 14.7983C24.5995 14.7983 25.7118 12.8879 25.7118 10.9541C25.7118 9.02027 24.5995 7.10986 22.3515 7.10986C20.1036 7.10986 18.9913 9.04367 18.9913 10.9541Z" fill="#0057FF"/>
<path d="M37.6093 17.9984C32.979 17.9984 30.6873 14.488 30.6873 10.9775C30.6873 7.46699 33.0024 3.91128 37.6093 3.91128C40.7695 3.91128 42.8394 5.57841 43.8408 7.7555L40.5024 8.88927C39.9681 7.86779 39.0105 7.11142 37.6093 7.11142C35.3613 7.11142 34.249 9.04523 34.249 10.9556C34.249 12.8661 35.3613 14.7999 37.6093 14.7999C39.0121 14.7999 39.9916 14.0451 40.5024 13.0002L43.8626 14.1339C42.8832 16.3344 40.7914 18 37.6077 18L37.6093 17.9984Z" fill="#0057FF"/>
<path d="M51.6079 17.9984C46.9776 17.9984 44.6859 14.488 44.6859 10.9775C44.6859 7.46699 47.001 3.91128 51.6079 3.91128C56.2147 3.91128 58.308 7.42176 58.308 10.9322C58.308 11.3767 58.2862 11.843 58.1971 12.2875H48.4257C48.8257 13.6879 49.8942 14.7983 51.6079 14.7983C53.0107 14.7983 53.9902 14.0435 54.501 12.9986L57.8613 14.1324C56.8818 16.3329 54.79 17.9984 51.6063 17.9984H51.6079ZM54.5901 9.08733C54.1011 7.95356 53.0982 7.10986 51.6079 7.10986C50.1176 7.10986 49.1147 7.95356 48.6257 9.08733H54.5901Z" fill="#0057FF"/>
<path d="M63.4445 0V5.60024C64.3786 4.57876 65.6705 3.91128 67.4061 3.91128C71.4131 3.91128 73.7267 7.4436 73.7267 10.9775C73.7267 14.5113 71.4334 17.9984 67.4061 17.9984C65.6705 17.9984 64.3786 17.3544 63.4445 16.3313V17.7754H60.017V0H63.4445ZM66.8047 14.7983C69.0526 14.7983 70.1649 12.8879 70.1649 10.9541C70.1649 9.02027 69.0526 7.10986 66.8047 7.10986C64.5567 7.10986 63.4445 9.04367 63.4445 10.9541C63.4445 12.8645 64.5567 14.7983 66.8047 14.7983Z" fill="#0057FF"/>
<path d="M13.7112 0V17.7754H10.2838V16.3313C9.34959 17.3528 8.05768 17.9984 6.32211 17.9984C2.29327 17.9984 0 14.488 0 10.9775C0 7.4436 2.31514 3.91128 6.32054 3.91128C8.05612 3.91128 9.34803 4.5772 10.2822 5.60024V0H13.7112ZM10.2838 10.9541C10.2838 9.04367 9.17151 7.10986 6.92354 7.10986C4.67558 7.10986 3.56331 9.04367 3.56331 10.9541C3.56331 12.8879 4.67558 14.7983 6.92354 14.7983C9.17151 14.7983 10.2838 12.8879 10.2838 10.9541Z" fill="#0057FF"/>
<path d="M89 10.9775C89 14.488 86.7067 17.9984 82.078 17.9984C77.4493 17.9984 75.156 14.488 75.156 10.9775C75.156 7.46699 77.4712 3.91128 82.078 3.91128C86.6849 3.91128 89 7.4436 89 10.9775ZM78.7178 10.9541C78.7178 12.8879 79.8301 14.7983 82.078 14.7983C84.326 14.7983 85.4383 12.8879 85.4383 10.9541C85.4383 9.02027 84.326 7.10986 82.078 7.10986C79.8301 7.10986 78.7178 9.04367 78.7178 10.9541Z" fill="#0057FF"/>
</svg>
