<svg width="65" height="13" viewBox="0 0 65 13" fill="none" xmlns="http://www.w3.org/2000/svg">
<path d="M7.884 5.92201H5.634C5.508 5.05801 5.04 4.75201 3.978 4.75201C3.096 4.75201 2.592 4.96801 2.592 5.49001C2.592 6.01201 3.078 6.22801 4.032 6.49801C5.04 6.78601 5.994 6.98401 6.678 7.25401C7.614 7.63201 8.136 8.24401 8.136 9.39601C8.136 11.232 6.786 12.33 4.266 12.33C1.548 12.33 0.0359975 11.052 -2.55369e-06 9.25201H2.412C2.412 10.08 3.114 10.566 4.248 10.566C5.076 10.566 5.814 10.314 5.814 9.64801C5.814 9.01801 5.148 8.82001 4.392 8.64001C2.898 8.28001 2.07 8.02801 1.44 7.63201C0.611997 7.11001 0.323997 6.42601 0.323997 5.63401C0.323997 4.14001 1.35 3.00601 4.05 3.00601C6.606 3.00601 7.758 4.01401 7.884 5.92201ZM13.7128 8.56801V6.26401H15.8908V8.78401C15.8908 10.656 14.8108 12.33 12.3088 12.33C9.71676 12.33 8.69076 10.674 8.69076 8.76601V0.846008H10.9948V3.24001H15.8908V4.89601H10.9948V8.53201C10.9948 9.64801 11.3908 10.296 12.3448 10.296C13.2808 10.296 13.7128 9.66601 13.7128 8.56801ZM22.211 8.73001L22.229 7.75801C21.995 7.99201 21.581 8.11801 20.717 8.28001C19.385 8.53201 18.953 8.91001 18.953 9.66601C18.953 10.332 19.349 10.656 20.087 10.656C21.293 10.656 22.193 9.77401 22.211 8.73001ZM24.569 12.096H22.391C22.319 11.88 22.265 11.574 22.247 11.304C21.689 11.916 20.753 12.33 19.565 12.33C17.549 12.33 16.613 11.34 16.613 9.90001C16.613 7.34401 18.323 7.05601 20.681 6.73201C21.851 6.57001 22.175 6.33601 22.175 5.72401C22.175 5.14801 21.599 4.80601 20.681 4.80601C19.619 4.80601 19.187 5.32801 19.079 6.12001H16.901C16.937 4.28401 17.945 3.00601 20.789 3.00601C23.597 3.00601 24.569 4.26601 24.569 6.49801V12.096ZM27.9409 12.096H25.6009V3.24001H27.7969V4.30201C28.5709 3.11401 29.4709 3.00601 30.4249 3.00601H30.7309V5.40001C30.5149 5.36401 30.2989 5.34601 30.0829 5.34601C28.6429 5.34601 27.9409 6.06601 27.9409 7.48801V12.096ZM39.4481 12.096H36.8201L34.8761 8.11801L33.7421 9.28801V12.096H31.3841V7.39098e-06H33.7421V6.60601L36.6581 3.24001H39.5201L36.5501 6.49801L39.4481 12.096ZM42.5333 12.096H40.0313V9.66601H42.5333V12.096Z" fill="#363636"/>
<path d="M45.7827 12.096H43.4427V7.39098e-06H45.7827V12.096ZM52.129 8.73001L52.147 7.75801C51.913 7.99201 51.499 8.11801 50.635 8.28001C49.303 8.53201 48.871 8.91001 48.871 9.66601C48.871 10.332 49.267 10.656 50.005 10.656C51.211 10.656 52.111 9.77401 52.129 8.73001ZM54.487 12.096H52.309C52.237 11.88 52.183 11.574 52.165 11.304C51.607 11.916 50.671 12.33 49.483 12.33C47.467 12.33 46.531 11.34 46.531 9.90001C46.531 7.34401 48.241 7.05601 50.599 6.73201C51.769 6.57001 52.093 6.33601 52.093 5.72401C52.093 5.14801 51.517 4.80601 50.599 4.80601C49.537 4.80601 49.105 5.32801 48.997 6.12001H46.819C46.855 4.28401 47.863 3.00601 50.707 3.00601C53.515 3.00601 54.487 4.26601 54.487 6.49801V12.096ZM59.7129 10.422C60.8829 10.422 61.7109 9.32401 61.7109 7.74001C61.7109 5.92201 61.0629 5.00401 59.6949 5.00401C58.3989 5.00401 57.7329 5.95801 57.7329 7.88401C57.7329 9.37801 58.5969 10.422 59.7129 10.422ZM57.7689 12.096H55.5189V7.39098e-06H57.8229V4.39201C58.4889 3.45601 59.3529 3.00601 60.4509 3.00601C62.7369 3.00601 64.0869 4.89601 64.0869 7.57801C64.0869 10.566 62.4849 12.33 60.2529 12.33C59.1729 12.33 58.3449 11.916 57.7869 11.016L57.7689 12.096Z" fill="#412ECF"/>
</svg>
